<svg width="256" height="31" viewBox="0 0 256 31" fill="none" xmlns="http://www.w3.org/2000/svg">
<rect y="0.341309" width="256" height="30.6587" rx="6.38723" fill="#FAFAFA"/>
<path d="M233.476 25.0343C232.641 25.0343 231.925 24.9194 231.328 24.6895C230.736 24.4637 230.264 24.1552 229.913 23.7641C229.562 23.373 229.334 22.9334 229.23 22.4455L231.613 22.125C231.685 22.3104 231.8 22.4838 231.957 22.6451C232.115 22.8064 232.322 22.9355 232.58 23.0322C232.843 23.133 233.161 23.1834 233.536 23.1834C234.097 23.1834 234.558 23.0463 234.921 22.7721C235.288 22.502 235.472 22.0483 235.472 21.4112V19.7116H235.363C235.25 19.9697 235.081 20.2136 234.855 20.4435C234.629 20.6733 234.339 20.8608 233.984 21.006C233.629 21.1511 233.205 21.2237 232.714 21.2237C232.016 21.2237 231.381 21.0624 230.808 20.7398C230.24 20.4132 229.786 19.9152 229.447 19.2459C229.113 18.5725 228.945 17.7216 228.945 16.6934C228.945 15.641 229.117 14.7619 229.459 14.0562C229.802 13.3506 230.258 12.8223 230.826 12.4715C231.399 12.1207 232.026 11.9453 232.707 11.9453C233.228 11.9453 233.663 12.034 234.014 12.2114C234.365 12.3848 234.647 12.6026 234.861 12.8647C235.079 13.1228 235.246 13.3768 235.363 13.6268H235.46V12.0663H238.018V21.4475C238.018 22.2379 237.825 22.8992 237.437 23.4314C237.05 23.9637 236.514 24.3629 235.829 24.629C235.147 24.8992 234.363 25.0343 233.476 25.0343ZM233.53 19.2882C233.945 19.2882 234.296 19.1854 234.583 18.9797C234.873 18.77 235.095 18.4717 235.248 18.0845C235.405 17.6934 235.484 17.2257 235.484 16.6813C235.484 16.1369 235.407 15.6651 235.254 15.2659C235.101 14.8627 234.879 14.5502 234.589 14.3284C234.298 14.1066 233.945 13.9958 233.53 13.9958C233.107 13.9958 232.75 14.1107 232.46 14.3405C232.169 14.5663 231.949 14.8809 231.8 15.2841C231.651 15.6873 231.576 16.1531 231.576 16.6813C231.576 17.2176 231.651 17.6813 231.8 18.0725C231.953 18.4596 232.173 18.76 232.46 18.9737C232.75 19.1834 233.107 19.2882 233.53 19.2882Z" fill="#09090B"/>
<path d="M222.753 21.3562V12.0657H225.251V13.6867H225.348C225.518 13.1101 225.802 12.6746 226.201 12.3802C226.6 12.0818 227.06 11.9326 227.58 11.9326C227.709 11.9326 227.848 11.9407 227.997 11.9568C228.147 11.9729 228.278 11.9951 228.391 12.0233V14.3097C228.27 14.2734 228.102 14.2411 227.889 14.2129C227.675 14.1847 227.479 14.1706 227.302 14.1706C226.923 14.1706 226.584 14.2532 226.286 14.4186C225.991 14.5798 225.758 14.8057 225.584 15.096C225.415 15.3863 225.33 15.721 225.33 16.1V21.3562H222.753Z" fill="#09090B"/>
<path d="M216.505 21.5382C215.566 21.5382 214.753 21.3386 214.068 20.9394C213.386 20.5362 212.86 19.9757 212.489 19.258C212.118 18.5362 211.933 17.6995 211.933 16.7478C211.933 15.7881 212.118 14.9494 212.489 14.2316C212.86 13.5099 213.386 12.9494 214.068 12.5502C214.753 12.1469 215.566 11.9453 216.505 11.9453C217.445 11.9453 218.255 12.1469 218.937 12.5502C219.622 12.9494 220.151 13.5099 220.522 14.2316C220.892 14.9494 221.078 15.7881 221.078 16.7478C221.078 17.6995 220.892 18.5362 220.522 19.258C220.151 19.9757 219.622 20.5362 218.937 20.9394C218.255 21.3386 217.445 21.5382 216.505 21.5382ZM216.517 19.5422C216.945 19.5422 217.302 19.4213 217.588 19.1793C217.874 18.9334 218.09 18.5987 218.235 18.1753C218.384 17.7519 218.459 17.27 218.459 16.7297C218.459 16.1893 218.384 15.7075 218.235 15.2841C218.09 14.8607 217.874 14.526 217.588 14.28C217.302 14.0341 216.945 13.9111 216.517 13.9111C216.086 13.9111 215.723 14.0341 215.429 14.28C215.138 14.526 214.919 14.8607 214.769 15.2841C214.624 15.7075 214.552 16.1893 214.552 16.7297C214.552 17.27 214.624 17.7519 214.769 18.1753C214.919 18.5987 215.138 18.9334 215.429 19.1793C215.723 19.4213 216.086 19.5422 216.517 19.5422Z" fill="#09090B"/>
<path d="M208.74 21.5142C208.341 21.5142 207.999 21.3731 207.712 21.0908C207.43 20.8045 207.289 20.4618 207.289 20.0626C207.289 19.6674 207.43 19.3287 207.712 19.0464C207.999 18.7642 208.341 18.623 208.74 18.623C209.128 18.623 209.466 18.7642 209.757 19.0464C210.047 19.3287 210.192 19.6674 210.192 20.0626C210.192 20.3287 210.124 20.5727 209.986 20.7945C209.853 21.0122 209.678 21.1876 209.46 21.3207C209.242 21.4497 209.003 21.5142 208.74 21.5142Z" fill="#09090B"/>
<path d="M205.4 14.7155L203.041 14.8607C203.001 14.6591 202.914 14.4776 202.781 14.3163C202.648 14.151 202.473 14.02 202.255 13.9232C202.041 13.8224 201.785 13.772 201.487 13.772C201.087 13.772 200.751 13.8566 200.477 14.026C200.202 14.1913 200.065 14.4131 200.065 14.6913C200.065 14.9131 200.154 15.1006 200.331 15.2538C200.509 15.4071 200.813 15.5301 201.245 15.6228L202.926 15.9615C203.829 16.147 204.503 16.4454 204.946 16.8567C205.39 17.268 205.612 17.8083 205.612 18.4777C205.612 19.0866 205.432 19.6209 205.073 20.0806C204.719 20.5402 204.231 20.8991 203.61 21.1572C202.993 21.4112 202.281 21.5382 201.475 21.5382C200.245 21.5382 199.265 21.2822 198.535 20.7701C197.809 20.2539 197.384 19.5523 197.259 18.6652L199.793 18.5321C199.87 18.9071 200.055 19.1934 200.35 19.391C200.644 19.5846 201.021 19.6814 201.481 19.6814C201.932 19.6814 202.295 19.5947 202.569 19.4213C202.848 19.2438 202.989 19.016 202.993 18.7378C202.989 18.5039 202.89 18.3124 202.696 18.1632C202.503 18.01 202.204 17.893 201.801 17.8124L200.192 17.4918C199.285 17.3103 198.61 16.9958 198.166 16.5482C197.727 16.1006 197.507 15.5301 197.507 14.8365C197.507 14.2397 197.668 13.7256 197.991 13.2941C198.317 12.8627 198.775 12.53 199.364 12.2961C199.956 12.0623 200.65 11.9453 201.444 11.9453C202.618 11.9453 203.541 12.1933 204.215 12.6893C204.892 13.1853 205.287 13.8607 205.4 14.7155Z" fill="#09090B"/>
<path d="M189.651 15.9857V21.3568H187.075V12.0663H189.53V13.7054H189.639C189.845 13.1651 190.19 12.7377 190.674 12.4231C191.157 12.1046 191.744 11.9453 192.434 11.9453C193.079 11.9453 193.641 12.0864 194.121 12.3687C194.601 12.651 194.974 13.0542 195.24 13.5784C195.506 14.0986 195.639 14.7196 195.639 15.4414V21.3568H193.063V15.901C193.067 15.3325 192.922 14.8889 192.627 14.5704C192.333 14.2478 191.928 14.0865 191.411 14.0865C191.065 14.0865 190.758 14.1611 190.492 14.3103C190.23 14.4595 190.024 14.6772 189.875 14.9635C189.73 15.2458 189.655 15.5865 189.651 15.9857Z" fill="#09090B"/>
<path d="M182.434 21.3563V12.0657H185.011V21.3563H182.434ZM183.728 10.8681C183.345 10.8681 183.017 10.7411 182.742 10.4871C182.472 10.229 182.337 9.92054 182.337 9.56166C182.337 9.20681 182.472 8.90237 182.742 8.64834C183.017 8.39027 183.345 8.26123 183.728 8.26123C184.111 8.26123 184.438 8.39027 184.708 8.64834C184.982 8.90237 185.119 9.20681 185.119 9.56166C185.119 9.92054 184.982 10.229 184.708 10.4871C184.438 10.7411 184.111 10.8681 183.728 10.8681Z" fill="#09090B"/>
<path d="M175.203 21.5322C174.61 21.5322 174.082 21.4294 173.618 21.2237C173.154 21.014 172.788 20.7056 172.517 20.2983C172.251 19.887 172.118 19.3749 172.118 18.762C172.118 18.2458 172.213 17.8124 172.402 17.4616C172.592 17.1107 172.85 16.8285 173.177 16.6148C173.503 16.401 173.874 16.2398 174.29 16.1309C174.709 16.022 175.148 15.9454 175.608 15.901C176.148 15.8446 176.584 15.7922 176.915 15.7438C177.245 15.6914 177.485 15.6147 177.634 15.5139C177.784 15.4131 177.858 15.2639 177.858 15.0663V15.0301C177.858 14.647 177.737 14.3506 177.495 14.1409C177.257 13.9312 176.919 13.8264 176.479 13.8264C176.015 13.8264 175.646 13.9292 175.372 14.1349C175.098 14.3365 174.917 14.5905 174.828 14.897L172.445 14.7034C172.566 14.1389 172.804 13.651 173.159 13.2397C173.513 12.8244 173.971 12.5058 174.532 12.284C175.096 12.0582 175.749 11.9453 176.491 11.9453C177.007 11.9453 177.501 12.0058 177.973 12.1268C178.449 12.2477 178.87 12.4352 179.237 12.6893C179.608 12.9433 179.901 13.2699 180.114 13.6691C180.328 14.0643 180.435 14.5381 180.435 15.0905V21.3568H177.991V20.0685H177.919C177.769 20.3588 177.57 20.6148 177.32 20.8366C177.07 21.0544 176.769 21.2257 176.419 21.3507C176.068 21.4717 175.663 21.5322 175.203 21.5322ZM175.941 19.7539C176.32 19.7539 176.655 19.6793 176.945 19.5301C177.235 19.3769 177.463 19.1713 177.628 18.9132C177.794 18.6551 177.876 18.3628 177.876 18.0362V17.0503C177.796 17.1027 177.685 17.1511 177.544 17.1954C177.407 17.2357 177.251 17.274 177.078 17.3103C176.905 17.3426 176.731 17.3728 176.558 17.4011C176.384 17.4253 176.227 17.4474 176.086 17.4676C175.784 17.512 175.519 17.5825 175.294 17.6793C175.068 17.7761 174.892 17.9071 174.767 18.0725C174.642 18.2337 174.58 18.4354 174.58 18.6773C174.58 19.0281 174.707 19.2963 174.961 19.4818C175.219 19.6632 175.546 19.7539 175.941 19.7539Z" fill="#09090B"/>
<path d="M167.859 12.9733C167.774 12.6789 167.655 12.4188 167.502 12.193C167.349 11.9632 167.161 11.7696 166.939 11.6124C166.721 11.4511 166.471 11.3281 166.189 11.2434C165.911 11.1587 165.603 11.1164 165.264 11.1164C164.631 11.1164 164.074 11.2736 163.594 11.5882C163.119 11.9027 162.748 12.3604 162.482 12.9612C162.215 13.558 162.082 14.2878 162.082 15.1507C162.082 16.0137 162.213 16.7475 162.475 17.3524C162.738 17.9572 163.109 18.419 163.588 18.7375C164.068 19.052 164.635 19.2093 165.288 19.2093C165.881 19.2093 166.387 19.1044 166.806 18.8948C167.23 18.6811 167.552 18.3806 167.774 17.9935C168 17.6064 168.113 17.1488 168.113 16.6205L168.645 16.6992H165.451V14.7273H170.635V16.2879C170.635 17.3766 170.405 18.3121 169.945 19.0944C169.486 19.8726 168.853 20.4734 168.046 20.8968C167.24 21.3162 166.316 21.5259 165.276 21.5259C164.115 21.5259 163.094 21.2698 162.215 20.7577C161.336 20.2416 160.651 19.5097 160.159 18.5621C159.671 17.6105 159.427 16.4814 159.427 15.1749C159.427 14.1709 159.572 13.2757 159.862 12.4894C160.157 11.6991 160.568 11.0297 161.096 10.4813C161.625 9.93289 162.24 9.51554 162.941 9.22925C163.643 8.94295 164.403 8.7998 165.221 8.7998C165.923 8.7998 166.576 8.90263 167.181 9.10828C167.786 9.3099 168.322 9.59619 168.79 9.96717C169.262 10.3381 169.647 10.7797 169.945 11.2918C170.244 11.7999 170.435 12.3604 170.52 12.9733H167.859Z" fill="#09090B"/>
<path d="M157.918 12.0662V14.0017H152.323V12.0662H157.918ZM153.593 9.84033H156.17V18.5018C156.17 18.7397 156.206 18.9252 156.279 19.0583C156.351 19.1873 156.452 19.278 156.581 19.3304C156.714 19.3829 156.867 19.4091 157.041 19.4091C157.162 19.4091 157.283 19.399 157.404 19.3788C157.525 19.3546 157.617 19.3365 157.682 19.3244L158.087 21.2418C157.958 21.2821 157.777 21.3285 157.543 21.3809C157.309 21.4373 157.025 21.4716 156.69 21.4837C156.069 21.5079 155.525 21.4252 155.057 21.2357C154.593 21.0462 154.232 20.7518 153.974 20.3526C153.716 19.9534 153.589 19.4494 153.593 18.8405V9.84033Z" fill="#09090B"/>
<path d="M148.336 21.3563V12.0657H150.912V21.3563H148.336ZM149.63 10.8681C149.247 10.8681 148.918 10.7411 148.644 10.4871C148.374 10.229 148.239 9.92054 148.239 9.56166C148.239 9.20681 148.374 8.90237 148.644 8.64834C148.918 8.39027 149.247 8.26123 149.63 8.26123C150.013 8.26123 150.34 8.39027 150.61 8.64834C150.884 8.90237 151.021 9.20681 151.021 9.56166C151.021 9.92054 150.884 10.229 150.61 10.4871C150.34 10.7411 150.013 10.8681 149.63 10.8681Z" fill="#09090B"/>
<path d="M143.058 12.9733C142.973 12.6789 142.854 12.4188 142.701 12.193C142.548 11.9632 142.36 11.7696 142.139 11.6124C141.921 11.4511 141.671 11.3281 141.389 11.2434C141.11 11.1587 140.802 11.1164 140.463 11.1164C139.83 11.1164 139.274 11.2736 138.794 11.5882C138.318 11.9027 137.947 12.3604 137.681 12.9612C137.415 13.558 137.282 14.2878 137.282 15.1507C137.282 16.0137 137.413 16.7475 137.675 17.3524C137.937 17.9572 138.308 18.419 138.788 18.7375C139.268 19.052 139.834 19.2093 140.487 19.2093C141.08 19.2093 141.586 19.1044 142.006 18.8948C142.429 18.6811 142.752 18.3806 142.973 17.9935C143.199 17.6064 143.312 17.1488 143.312 16.6205L143.844 16.6992H140.651V14.7273H145.834V16.2879C145.834 17.3766 145.604 18.3121 145.145 19.0944C144.685 19.8726 144.052 20.4734 143.246 20.8968C142.439 21.3162 141.516 21.5259 140.475 21.5259C139.314 21.5259 138.294 21.2698 137.415 20.7577C136.536 20.2416 135.85 19.5097 135.358 18.5621C134.87 17.6105 134.626 16.4814 134.626 15.1749C134.626 14.1709 134.772 13.2757 135.062 12.4894C135.356 11.6991 135.768 11.0297 136.296 10.4813C136.824 9.93289 137.439 9.51554 138.141 9.22925C138.842 8.94295 139.602 8.7998 140.421 8.7998C141.123 8.7998 141.776 8.90263 142.381 9.10828C142.986 9.3099 143.522 9.59619 143.99 9.96717C144.461 10.3381 144.846 10.7797 145.145 11.2918C145.443 11.7999 145.635 12.3604 145.719 12.9733H143.058Z" fill="#09090B"/>
<path d="M122.835 15.9857V21.3568H120.258V12.0663H122.714V13.7054H122.823C123.029 13.1651 123.373 12.7377 123.857 12.4231C124.341 12.1046 124.928 11.9453 125.617 11.9453C126.262 11.9453 126.825 12.0864 127.305 12.3687C127.785 12.651 128.158 13.0542 128.424 13.5784C128.69 14.0986 128.823 14.7196 128.823 15.4414V21.3568H126.246V15.901C126.25 15.3325 126.105 14.8889 125.811 14.5704C125.516 14.2478 125.111 14.0865 124.595 14.0865C124.248 14.0865 123.942 14.1611 123.676 14.3103C123.414 14.4595 123.208 14.6772 123.059 14.9635C122.914 15.2458 122.839 15.5865 122.835 15.9857Z" fill="#09090B"/>
<path d="M114.01 21.5382C113.071 21.5382 112.258 21.3386 111.573 20.9394C110.891 20.5362 110.365 19.9757 109.994 19.258C109.623 18.5362 109.438 17.6995 109.438 16.7478C109.438 15.7881 109.623 14.9494 109.994 14.2316C110.365 13.5099 110.891 12.9494 111.573 12.5502C112.258 12.1469 113.071 11.9453 114.01 11.9453C114.95 11.9453 115.76 12.1469 116.442 12.5502C117.127 12.9494 117.655 13.5099 118.026 14.2316C118.397 14.9494 118.583 15.7881 118.583 16.7478C118.583 17.6995 118.397 18.5362 118.026 19.258C117.655 19.9757 117.127 20.5362 116.442 20.9394C115.76 21.3386 114.95 21.5382 114.01 21.5382ZM114.022 19.5422C114.45 19.5422 114.807 19.4213 115.093 19.1793C115.379 18.9334 115.595 18.5987 115.74 18.1753C115.889 17.7519 115.964 17.27 115.964 16.7297C115.964 16.1893 115.889 15.7075 115.74 15.2841C115.595 14.8607 115.379 14.526 115.093 14.28C114.807 14.0341 114.45 13.9111 114.022 13.9111C113.591 13.9111 113.228 14.0341 112.934 14.28C112.643 14.526 112.423 14.8607 112.274 15.2841C112.129 15.7075 112.057 16.1893 112.057 16.7297C112.057 17.27 112.129 17.7519 112.274 18.1753C112.423 18.5987 112.643 18.9334 112.934 19.1793C113.228 19.4213 113.591 19.5422 114.022 19.5422Z" fill="#09090B"/>
<path d="M99.9249 21.5382C98.9692 21.5382 98.1466 21.3447 97.4571 20.9576C96.7716 20.5665 96.2434 20.014 95.8724 19.3003C95.5014 18.5825 95.3159 17.7337 95.3159 16.7539C95.3159 15.7982 95.5014 14.9595 95.8724 14.2377C96.2434 13.5159 96.7655 12.9534 97.4389 12.5502C98.1164 12.1469 98.9107 11.9453 99.8221 11.9453C100.435 11.9453 101.006 12.0441 101.534 12.2417C102.066 12.4352 102.53 12.7276 102.925 13.1187C103.324 13.5099 103.635 14.0018 103.856 14.5946C104.078 15.1833 104.189 15.8728 104.189 16.6631V17.3708H96.3442V15.774H101.764C101.764 15.403 101.683 15.0744 101.522 14.7881C101.36 14.5018 101.137 14.278 100.85 14.1167C100.568 13.9514 100.239 13.8687 99.8644 13.8687C99.4733 13.8687 99.1265 13.9595 98.8241 14.1409C98.5257 14.3183 98.2918 14.5583 98.1224 14.8607C97.9531 15.1591 97.8664 15.4918 97.8623 15.8587V17.3769C97.8623 17.8366 97.947 18.2337 98.1164 18.5684C98.2898 18.9031 98.5337 19.1612 98.8482 19.3426C99.1628 19.5241 99.5358 19.6148 99.9672 19.6148C100.254 19.6148 100.516 19.5745 100.754 19.4939C100.991 19.4132 101.195 19.2922 101.364 19.1309C101.534 18.9696 101.663 18.7721 101.752 18.5382L104.135 18.6954C104.014 19.268 103.766 19.7681 103.391 20.1955C103.02 20.6189 102.54 20.9495 101.951 21.1874C101.366 21.4213 100.691 21.5382 99.9249 21.5382Z" fill="#09090B"/>
<path d="M80.155 21.3568V12.0663H82.6107V13.7054H82.7196C82.9131 13.1611 83.2357 12.7316 83.6874 12.4171C84.139 12.1026 84.6793 11.9453 85.3084 11.9453C85.9455 11.9453 86.4878 12.1046 86.9354 12.4231C87.383 12.7377 87.6814 13.1651 87.8306 13.7054H87.9274C88.1169 13.1732 88.4596 12.7477 88.9556 12.4292C89.4556 12.1066 90.0464 11.9453 90.7278 11.9453C91.5948 11.9453 92.2984 12.2215 92.8387 12.774C93.3831 13.3224 93.6553 14.1006 93.6553 15.1087V21.3568H91.0847V15.6168C91.0847 15.1006 90.9476 14.7135 90.6734 14.4554C90.3992 14.1974 90.0564 14.0683 89.6451 14.0683C89.1774 14.0683 88.8125 14.2175 88.5504 14.5159C88.2883 14.8103 88.1572 15.1994 88.1572 15.6833V21.3568H85.6592V15.5623C85.6592 15.1067 85.5281 14.7438 85.266 14.4736C85.0079 14.2034 84.6672 14.0683 84.2438 14.0683C83.9575 14.0683 83.6995 14.1409 83.4696 14.2861C83.2438 14.4272 83.0644 14.6268 82.9313 14.8849C82.7982 15.1389 82.7317 15.4373 82.7317 15.7801V21.3568H80.155Z" fill="#09090B"/>
<path d="M74.5346 12.0662V14.0017H68.9397V12.0662H74.5346ZM70.2099 9.84033H72.7866V18.5018C72.7866 18.7397 72.8228 18.9252 72.8954 19.0583C72.968 19.1873 73.0688 19.278 73.1978 19.3304C73.3309 19.3829 73.4841 19.4091 73.6575 19.4091C73.7785 19.4091 73.8995 19.399 74.0204 19.3788C74.1414 19.3546 74.2342 19.3365 74.2987 19.3244L74.7039 21.2418C74.5749 21.2821 74.3934 21.3285 74.1596 21.3809C73.9257 21.4373 73.6414 21.4716 73.3067 21.4837C72.6857 21.5079 72.1414 21.4252 71.6736 21.2357C71.2099 21.0462 70.849 20.7518 70.5909 20.3526C70.3329 19.9534 70.2059 19.4494 70.2099 18.8405V9.84033Z" fill="#09090B"/>
<path d="M62.1577 21.3562V12.0657H64.6557V13.6867H64.7525C64.9219 13.1101 65.2062 12.6746 65.6054 12.3802C66.0046 12.0818 66.4643 11.9326 66.9844 11.9326C67.1135 11.9326 67.2526 11.9407 67.4018 11.9568C67.551 11.9729 67.682 11.9951 67.7949 12.0233V14.3097C67.674 14.2734 67.5066 14.2411 67.2929 14.2129C67.0792 14.1847 66.8836 14.1706 66.7062 14.1706C66.3272 14.1706 65.9884 14.2532 65.69 14.4186C65.3957 14.5798 65.1618 14.8057 64.9884 15.096C64.8191 15.3863 64.7344 15.721 64.7344 16.1V21.3562H62.1577Z" fill="#09090B"/>
<path d="M55.9098 21.5382C54.9703 21.5382 54.1578 21.3386 53.4723 20.9394C52.7908 20.5362 52.2646 19.9757 51.8936 19.258C51.5226 18.5362 51.3372 17.6995 51.3372 16.7478C51.3372 15.7881 51.5226 14.9494 51.8936 14.2316C52.2646 13.5099 52.7908 12.9494 53.4723 12.5502C54.1578 12.1469 54.9703 11.9453 55.9098 11.9453C56.8494 11.9453 57.6599 12.1469 58.3413 12.5502C59.0268 12.9494 59.5551 13.5099 59.926 14.2316C60.297 14.9494 60.4825 15.7881 60.4825 16.7478C60.4825 17.6995 60.297 18.5362 59.926 19.258C59.5551 19.9757 59.0268 20.5362 58.3413 20.9394C57.6599 21.3386 56.8494 21.5382 55.9098 21.5382ZM55.9219 19.5422C56.3494 19.5422 56.7062 19.4213 56.9925 19.1793C57.2788 18.9334 57.4945 18.5987 57.6397 18.1753C57.7889 17.7519 57.8635 17.27 57.8635 16.7297C57.8635 16.1893 57.7889 15.7075 57.6397 15.2841C57.4945 14.8607 57.2788 14.526 56.9925 14.28C56.7062 14.0341 56.3494 13.9111 55.9219 13.9111C55.4905 13.9111 55.1276 14.0341 54.8332 14.28C54.5429 14.526 54.3231 14.8607 54.1739 15.2841C54.0287 15.7075 53.9562 16.1893 53.9562 16.7297C53.9562 17.27 54.0287 17.7519 54.1739 18.1753C54.3231 18.5987 54.5429 18.9334 54.8332 19.1793C55.1276 19.4213 55.4905 19.5422 55.9219 19.5422Z" fill="#09090B"/>
<path d="M40.9336 24.8407V12.0663H43.474V13.6268H43.5889C43.7018 13.3768 43.8651 13.1228 44.0788 12.8647C44.2966 12.6026 44.5788 12.3848 44.9256 12.2114C45.2764 12.034 45.7119 11.9453 46.2321 11.9453C46.9095 11.9453 47.5345 12.1227 48.1071 12.4776C48.6797 12.8284 49.1374 13.3586 49.4801 14.0683C49.8229 14.774 49.9943 15.6591 49.9943 16.7236C49.9943 17.7599 49.8269 18.635 49.4922 19.3487C49.1616 20.0584 48.71 20.5967 48.1374 20.9636C47.5688 21.3265 46.9317 21.508 46.226 21.508C45.726 21.508 45.3006 21.4253 44.9498 21.26C44.603 21.0947 44.3187 20.887 44.097 20.637C43.8752 20.383 43.7058 20.1269 43.5889 19.8689H43.5103V24.8407H40.9336ZM43.4558 16.7115C43.4558 17.264 43.5324 17.7458 43.6857 18.1571C43.8389 18.5684 44.0607 18.889 44.351 19.1188C44.6413 19.3447 44.9942 19.4576 45.4095 19.4576C45.8289 19.4576 46.1837 19.3426 46.474 19.1128C46.7644 18.8789 46.9841 18.5563 47.1333 18.145C47.2865 17.7297 47.3632 17.2519 47.3632 16.7115C47.3632 16.1752 47.2886 15.7035 47.1394 15.2962C46.9902 14.8889 46.7704 14.5704 46.4801 14.3405C46.1897 14.1107 45.8329 13.9958 45.4095 13.9958C44.9901 13.9958 44.6353 14.1066 44.345 14.3284C44.0587 14.5502 43.8389 14.8647 43.6857 15.272C43.5324 15.6793 43.4558 16.1591 43.4558 16.7115Z" fill="#09090B"/>
<path d="M30.155 24.8407V12.0663H32.6954V13.6268H32.8103C32.9232 13.3768 33.0865 13.1228 33.3003 12.8647C33.518 12.6026 33.8003 12.3848 34.147 12.2114C34.4979 12.034 34.9334 11.9453 35.4535 11.9453C36.131 11.9453 36.756 12.1227 37.3286 12.4776C37.9012 12.8284 38.3588 13.3586 38.7016 14.0683C39.0443 14.774 39.2157 15.6591 39.2157 16.7236C39.2157 17.7599 39.0484 18.635 38.7137 19.3487C38.383 20.0584 37.9314 20.5967 37.3588 20.9636C36.7902 21.3265 36.1531 21.508 35.4475 21.508C34.9475 21.508 34.5221 21.4253 34.1712 21.26C33.8245 21.0947 33.5402 20.887 33.3184 20.637C33.0966 20.383 32.9273 20.1269 32.8103 19.8689H32.7317V24.8407H30.155ZM32.6773 16.7115C32.6773 17.264 32.7539 17.7458 32.9071 18.1571C33.0603 18.5684 33.2821 18.889 33.5724 19.1188C33.8628 19.3447 34.2156 19.4576 34.6309 19.4576C35.0503 19.4576 35.4051 19.3426 35.6955 19.1128C35.9858 18.8789 36.2056 18.5563 36.3548 18.145C36.508 17.7297 36.5846 17.2519 36.5846 16.7115C36.5846 16.1752 36.51 15.7035 36.3608 15.2962C36.2116 14.8889 35.9918 14.5704 35.7015 14.3405C35.4112 14.1107 35.0543 13.9958 34.6309 13.9958C34.2116 13.9958 33.8567 14.1066 33.5664 14.3284C33.2801 14.5502 33.0603 14.8647 32.9071 15.272C32.7539 15.6793 32.6773 16.1591 32.6773 16.7115Z" fill="#09090B"/>
<path d="M25.5174 17.4007V12.0659H28.094V21.3564H25.6202V19.6689H25.5234C25.3137 20.2133 24.9649 20.6508 24.477 20.9814C23.9931 21.3121 23.4024 21.4774 22.7048 21.4774C22.0838 21.4774 21.5374 21.3363 21.0656 21.054C20.5939 20.7717 20.2249 20.3705 19.9588 19.8503C19.6967 19.3302 19.5636 18.7072 19.5596 17.9814V12.0659H22.1362V17.5217C22.1403 18.0701 22.2874 18.5035 22.5778 18.8221C22.8681 19.1407 23.2572 19.2999 23.7451 19.2999C24.0556 19.2999 24.346 19.2294 24.6161 19.0882C24.8863 18.9431 25.104 18.7294 25.2694 18.4471C25.4387 18.1648 25.5214 17.816 25.5174 17.4007Z" fill="#09090B"/>
<path d="M15.1669 12.5317C15.1186 12.0438 14.9109 11.6648 14.544 11.3946C14.177 11.1244 13.679 10.9894 13.05 10.9894C12.6225 10.9894 12.2616 11.0498 11.9673 11.1708C11.6729 11.2878 11.4471 11.4511 11.2899 11.6607C11.1366 11.8704 11.06 12.1083 11.06 12.3745C11.0519 12.5963 11.0983 12.7898 11.1991 12.9551C11.304 13.1205 11.4471 13.2636 11.6286 13.3846C11.81 13.5015 12.0197 13.6043 12.2576 13.693C12.4955 13.7777 12.7496 13.8503 13.0197 13.9108L14.1327 14.1769C14.673 14.2979 15.169 14.4592 15.6206 14.6608C16.0722 14.8624 16.4633 15.1104 16.794 15.4048C17.1246 15.6991 17.3807 16.0459 17.5622 16.4451C17.7476 16.8443 17.8424 17.302 17.8464 17.8181C17.8424 18.5762 17.6489 19.2335 17.2658 19.7899C16.8867 20.3424 16.3383 20.7718 15.6206 21.0783C14.9069 21.3807 14.046 21.5319 13.0379 21.5319C12.0379 21.5319 11.1669 21.3787 10.4249 21.0722C9.687 20.7658 9.11037 20.3121 8.69504 19.7113C8.28374 19.1065 8.06801 18.3585 8.04785 17.4673H10.5822C10.6104 17.8826 10.7294 18.2294 10.939 18.5077C11.1528 18.7819 11.437 18.9895 11.7919 19.1307C12.1508 19.2678 12.556 19.3363 13.0076 19.3363C13.4512 19.3363 13.8363 19.2718 14.1629 19.1428C14.4935 19.0137 14.7496 18.8343 14.9311 18.6044C15.1125 18.3746 15.2032 18.1105 15.2032 17.8121C15.2032 17.5339 15.1206 17.3 14.9552 17.1105C14.794 16.9209 14.556 16.7596 14.2415 16.6266C13.931 16.4935 13.55 16.3725 13.0984 16.2637L11.7495 15.9249C10.7052 15.6709 9.88055 15.2737 9.2757 14.7334C8.67085 14.1931 8.37044 13.4652 8.37447 12.5499C8.37044 11.7999 8.57004 11.1446 8.97327 10.5841C9.38054 10.0236 9.93902 9.58611 10.6487 9.27159C11.3584 8.95707 12.1649 8.7998 13.0681 8.7998C13.9875 8.7998 14.7899 8.95707 15.4754 9.27159C16.165 9.58611 16.7013 10.0236 17.0843 10.5841C17.4674 11.1446 17.665 11.7938 17.6771 12.5317H15.1669Z" fill="#09090B"/>
<path d="M244.333 6.56694H243.704C243.313 6.56694 243.117 6.56694 242.968 6.64306C242.836 6.71001 242.73 6.81676 242.663 6.94816C242.587 7.09754 242.587 7.29324 242.587 7.68435V10.338C242.587 10.7291 242.587 10.9246 242.663 11.074C242.73 11.2054 242.836 11.3123 242.968 11.3792C243.117 11.4553 243.313 11.4553 243.703 11.4553H246.359C246.749 11.4553 246.944 11.4553 247.094 11.3792C247.225 11.3123 247.332 11.2053 247.399 11.0739C247.475 10.9246 247.475 10.7294 247.475 10.339V9.70946M247.824 7.96361V6.21777M247.824 6.21777H246.078M247.824 6.21777L245.38 8.66195" stroke="#09090B" stroke-width="0.698337" stroke-linecap="round" stroke-linejoin="round"/>
</svg>
